<svg width="85" height="74" viewBox="0 0 85 74" fill="none" xmlns="http://www.w3.org/2000/svg">
<path d="M42.4314 4.98849C35.2 4.98849 28.131 6.85534 22.1183 10.353C16.1056 13.8506 11.4193 18.8219 8.65201 24.6382C5.88468 30.4546 5.16062 36.8547 6.57139 43.0293C7.98216 49.2039 11.4644 54.8756 16.5778 59.3272C21.6911 63.7789 28.2059 66.8105 35.2984 68.0387C42.3908 69.2669 49.7423 68.6365 56.4232 66.2273C63.1042 63.8181 68.8144 59.7382 72.832 54.5037C76.8495 49.2691 78.9939 43.1149 78.9939 36.8194C78.9847 28.3798 75.1296 20.2881 68.2748 14.3204C61.42 8.35267 52.1255 4.9965 42.4314 4.98849ZM20.8515 42.9256C19.715 42.4659 18.7197 41.7784 17.9472 40.9193C17.1747 40.0602 16.6469 39.0541 16.407 37.9832C16.0035 36.7137 15.9124 35.3842 16.1398 34.0819C16.3672 32.7796 16.9079 31.5338 17.7265 30.426C18.5251 29.2623 19.5833 28.2495 20.8386 27.4474C22.0939 26.6453 23.5209 26.0701 25.0355 25.7557C26.6149 25.325 28.3239 25.4386 29.8098 26.0731C30.5109 26.3798 31.1234 26.8206 31.6014 27.3623C32.0794 27.9041 32.4106 28.5329 32.5702 29.2017C32.7835 29.9589 32.8131 30.7465 32.6571 31.5142C32.5089 32.3524 32.1274 33.1463 31.5459 33.8267L30.6779 34.9603C30.4681 35.2483 30.1747 35.483 29.8272 35.6405L29.3411 35.3079C29.3411 35.1115 29.4626 34.8243 29.914 34.4767C30.4604 33.9242 30.7729 33.2254 30.7994 32.4967C30.9426 31.6928 30.9131 30.8729 30.7126 30.0784C30.4011 28.9364 29.6315 27.9288 28.5425 27.2369C28.0318 26.9118 27.4419 26.6935 26.8186 26.5992C26.1954 26.5048 25.5555 26.5368 24.9487 26.6928C23.9799 26.9051 23.0793 27.3066 22.3152 27.8671C21.5512 28.4275 20.9437 29.132 20.539 29.9272C19.5898 31.702 19.417 33.7173 20.0529 35.5951C20.5761 37.741 21.9612 39.6542 23.9591 40.991C24.8713 41.5732 25.9275 41.9612 27.0431 42.1239C28.1586 42.2866 29.3024 42.2196 30.3827 41.9281C32.5246 41.5234 34.3964 40.399 35.5911 38.7994C36.1555 38.009 36.5188 37.1224 36.6566 36.1995C36.7943 35.2765 36.7033 34.3386 36.3897 33.4489C35.6932 31.6621 34.7363 29.9604 33.5425 28.3856L30.4869 23.8512C30.0559 23.1163 29.7071 22.3469 29.4452 21.5539C29.1615 20.5418 29.1566 19.4857 29.4312 18.4718C29.7058 17.4578 30.252 16.5148 31.0251 15.7197C32.7234 13.7738 35.1489 12.4053 37.8828 11.8504C39.7194 11.3811 41.6816 11.4448 43.473 12.0318C44.1947 12.2686 44.8416 12.6509 45.3607 13.1475C45.8797 13.644 46.2562 14.2407 46.4591 14.8884C46.6418 15.5844 46.6381 16.3075 46.4485 17.0021C46.2588 17.6966 45.8883 18.3438 45.3654 18.8937C44.2666 20.2216 42.66 21.1648 40.8341 21.5539C40.1223 21.7201 39.7404 21.6597 39.6536 21.3876C39.5668 21.1155 39.8619 20.8586 40.5737 20.6923C41.1339 20.5402 41.6477 20.2806 42.0773 19.9327C42.507 19.5848 42.8415 19.1575 43.0564 18.6821C43.6522 17.6702 43.8004 16.5031 43.473 15.4023C43.3584 14.9117 43.1338 14.4456 42.8121 14.0307C42.4903 13.6157 42.0778 13.26 41.598 12.984C41.1241 12.7324 40.5935 12.5726 40.0424 12.5152C39.4912 12.4578 38.9323 12.5043 38.4036 12.6515C37.8198 12.7583 37.2733 12.9838 36.8087 13.3095C36.3441 13.6352 35.9744 14.0519 35.73 14.5257C35.2141 15.6008 35.1526 16.8004 35.5564 17.9113C35.7252 18.4867 35.9518 19.0481 36.2334 19.589C36.613 20.2847 37.0481 20.9564 37.5355 21.5992L39.8619 24.8186C40.9954 26.2731 41.8568 27.875 42.414 29.5645C42.8851 30.9644 42.946 32.4447 42.5911 33.8704C42.2363 35.296 41.4771 36.6216 40.3827 37.7262C37.4616 40.4561 33.6405 42.3306 29.4452 43.0919C26.6719 43.8891 23.6678 43.8304 20.9383 42.9256H20.8515ZM67.6397 28.6576C66.6848 30.1691 61.98 31.1515 62.6571 29.9877C63.1622 29.0664 63.5972 28.1172 63.9591 27.1462C64.1062 26.6505 64.1062 26.1304 63.9591 25.6347C63.5772 24.3047 62.223 23.8966 59.9314 24.4105C59.2057 24.5726 58.5017 24.8006 57.8307 25.0906C56.901 25.4788 56.027 25.9607 55.2265 26.5265C53.9936 27.5023 52.9137 28.6152 52.0147 29.8365L49.3237 33.2826L47.9001 35.5951L47.1536 37.3786V37.5146L46.6501 38.618L46.0598 40.3108L45.8168 41.6711V43.6209L46.0251 45.6764C46.1604 46.1147 46.4025 46.5225 46.735 46.872C47.0676 47.2215 47.4827 47.5045 47.9522 47.7017C48.9665 48.1819 50.1551 48.3011 51.2682 48.0343C52.0947 47.8197 52.8749 47.4878 53.5772 47.0518C54.3403 46.6182 55.045 46.1112 55.6779 45.5404L56.6675 44.2708L57.5529 42.7593C57.9182 42.0605 58.22 41.3378 58.4557 40.598C58.4557 40.4922 52.8654 40.9607 53.1085 40.0085C53.2473 39.54 53.3689 40.0085 53.5078 39.6307L60.6258 37.3182L61.8064 37.031L62.605 36.8496C62.8228 36.7532 63.0493 36.6724 63.2821 36.6078C63.7342 36.4799 64.1704 36.3128 64.5841 36.109L66.3203 35.3079C65.6945 38.2177 64.9006 41.0981 63.9418 43.9383C63.3033 45.7764 62.5499 47.5827 61.6848 49.3492C61.4494 49.8061 61.1827 50.2502 60.8862 50.6793C60.2612 51.7826 59.48 52.9918 58.5598 54.3218C57.4785 55.8766 56.0709 57.2405 54.4105 58.3423C53.1014 59.1704 51.7198 59.9082 50.2786 60.549C49.13 61.0786 47.9194 61.4992 46.6675 61.8035C45.2517 62.1723 43.7429 62.1723 42.3272 61.8035C41.7875 61.6627 41.3005 61.3996 40.9161 61.0411C40.5317 60.6825 40.2638 60.2414 40.1397 59.763C40.0496 59.3968 40.0478 59.0183 40.1345 58.6515C40.2212 58.2846 40.3944 57.9374 40.6432 57.6319C40.8746 57.2862 41.1825 56.984 41.549 56.7427C41.9156 56.5014 42.3335 56.3259 42.7786 56.2263C43.2031 56.1567 43.6388 56.1567 44.0633 56.2263L44.7404 56.6192C44.9433 56.7596 45.0943 56.9488 45.1744 57.1633L44.723 57.2691L44.3932 57.3447C44.1668 57.3865 43.9541 57.4721 43.7708 57.595C43.5875 57.718 43.4383 57.8752 43.3341 58.0551C43.2161 58.2373 43.1429 58.4389 43.119 58.647C43.0951 58.8551 43.121 59.0653 43.1953 59.2642C43.2837 59.5536 43.4492 59.8208 43.6785 60.044C43.9078 60.2672 44.1942 60.4402 44.5147 60.549C45.3447 60.8111 46.2541 60.8111 47.0841 60.549C48.309 60.2708 49.4173 59.694 50.2786 58.8864C50.1918 58.8864 50.1918 58.7806 50.2786 58.5992C51.6753 57.0231 52.8416 55.302 53.7508 53.4754L55.3828 49.6062L56.7369 45.7066L55.2786 47.6866L54.289 48.8051C53.3458 49.7728 52.2532 50.6223 51.0425 51.3292C49.8699 51.9971 48.5881 52.5067 47.2404 52.8406C46.4375 53.0502 45.5941 53.1153 44.7614 53.0322C43.9287 52.949 43.1242 52.7193 42.3966 52.357C40.9282 51.5086 39.8951 50.1974 39.5147 48.6993C39.3372 48.0748 39.2268 47.4372 39.1848 46.7949C39.1513 46.1084 39.1861 45.4206 39.289 44.7393C39.4105 44.0289 39.5321 43.3488 39.6883 42.6989C39.7898 42.1878 39.929 41.683 40.105 41.1874C40.4522 40.4166 43.5772 35.5347 44.2369 34.7034C44.9865 33.791 45.8042 32.9226 46.6848 32.1037L49.6536 29.3831C50.5672 28.6012 51.5355 27.8693 52.5529 27.1915C53.3862 26.6625 54.4279 26.0579 55.6779 25.408L58.664 24.1233C59.8435 23.7361 61.0496 23.413 62.2751 23.156C65.8747 22.3398 67.9638 22.9293 68.5425 24.9244C68.6817 25.5677 68.6736 26.2287 68.5187 26.8694C68.3638 27.51 68.0651 28.1177 67.6397 28.6576Z" fill="#A1151A"/>
<path d="M42.4305 74C34.0308 73.988 25.8234 71.8094 18.845 67.7392C11.8665 63.669 6.42997 57.8898 3.22185 51.1314C0.0137405 44.373 -0.822048 36.9385 0.820038 29.7669C2.46212 22.5952 6.50844 16.008 12.448 10.8371C18.3875 5.66617 25.9539 2.1435 34.1916 0.713916C42.4294 -0.715665 50.969 0.0119623 58.732 2.80491C66.495 5.59786 73.1333 10.3309 77.8085 16.4062C82.4837 22.4816 84.9863 29.6268 85 36.9395C85.0046 41.8075 83.9066 46.6285 81.7689 51.1267C79.6312 55.6248 76.4957 59.7119 72.5419 63.1541C68.588 66.5963 63.8934 69.326 58.7266 71.187C53.5597 73.0481 48.0221 74.004 42.4305 74ZM42.4305 2.40315C34.5666 2.40016 26.8783 4.42758 20.338 8.22897C13.7977 12.0304 8.69929 17.435 5.68752 23.7592C2.67574 30.0834 1.88595 37.0432 3.41802 43.7583C4.95009 50.4733 8.7352 56.642 14.2946 61.4841C19.854 66.3262 26.938 69.6241 34.6506 70.9609C42.3631 72.2976 50.3578 71.6131 57.6235 68.9938C64.8891 66.3746 71.0993 61.9383 75.4687 56.246C79.838 50.5538 82.1701 43.8613 82.1701 37.0151C82.177 32.4658 81.1545 27.9599 79.1611 23.7547C77.1677 19.5494 74.2424 15.7271 70.5523 12.5061C66.8621 9.28506 62.4793 6.72834 57.6542 4.9819C52.8291 3.23547 47.656 2.33353 42.4305 2.32758" fill="#D8B243"/>
</svg>
